HIERARCHY
ROOT hip
{
	OFFSET 0.000000 0.000000 0.000000 
	CHANNELS 6 Xposition Yposition Zposition Xrotation Zrotation Yrotation
	JOINT abdomen
	{
		OFFSET 0.000000 3.402643 0.000000 
		CHANNELS 3 Xrotation Zrotation Yrotation
		JOINT chest
		{
			OFFSET 0.000000 8.438565 -0.680529 
			CHANNELS 3 Xrotation Zrotation Yrotation
			JOINT neck
			{
				OFFSET 0.000000 10.207942 -0.272212 
				CHANNELS 3 Xrotation Zrotation Yrotation
				JOINT head
				{
					OFFSET 0.000000 3.130431 0.000000 
					CHANNELS 3 Xrotation Zrotation Yrotation
					End Site
					{
						OFFSET 0.000000 3.130435 0.000000 
					}
				}
			}
			JOINT lCollar
			{
				OFFSET 3.470700 6.669187 -0.816635 
				CHANNELS 3 Yrotation Zrotation Xrotation
				JOINT lShldr
				{
					OFFSET 3.198488 0.000000 0.000000 
					CHANNELS 3 Zrotation Yrotation Xrotation
					JOINT lForeArm
					{
						OFFSET 10.139888 0.000000 0.000000 
						CHANNELS 3 Yrotation Zrotation Xrotation
						JOINT lHand
						{
							OFFSET 8.370511 0.000000 0.000000 
							CHANNELS 3 Zrotation Yrotation Xrotation
							End Site
							{
								OFFSET 4.083176 0.000000 0.000000 
							}
						}
					}
				}
			}
			JOINT rCollar
			{
				OFFSET -3.470700 6.669187 -0.816635 
				CHANNELS 3 Yrotation Zrotation Xrotation
				JOINT rShldr
				{
					OFFSET -3.198488 0.000000 0.000000 
					CHANNELS 3 Zrotation Yrotation Xrotation
					JOINT rForeArm
					{
						OFFSET -10.139888 0.000000 0.000000 
						CHANNELS 3 Yrotation Zrotation Xrotation
						JOINT rHand
						{
							OFFSET -8.370511 0.000000 0.000000 
							CHANNELS 3 Zrotation Yrotation Xrotation
							End Site
							{
								OFFSET -4.083176 0.000000 0.000000 
							}
						}
					}
				}
			}
		}
	}
	JOINT lThigh
	{
		OFFSET 5.308129 -1.633274 1.361059 
		CHANNELS 3 Xrotation Zrotation Yrotation
		JOINT lShin
		{
			OFFSET -2.041588 -20.007561 0.000000 
			CHANNELS 3 Xrotation Zrotation Yrotation
			JOINT lFoot
			{
				OFFSET 0.000000 -19.190928 -1.224953 
				CHANNELS 3 Xrotation Yrotation Zrotation
				End Site
				{
					OFFSET 0.000000 -2.449906 4.627600 
				}
			}
		}
	}
	JOINT rThigh
	{
		OFFSET -5.308129 -1.633274 1.361059 
		CHANNELS 3 Xrotation Zrotation Yrotation
		JOINT rShin
		{
			OFFSET 2.041588 -20.007561 0.000000 
			CHANNELS 3 Xrotation Zrotation Yrotation
			JOINT rFoot
			{
				OFFSET 0.000000 -19.190928 -1.224953 
				CHANNELS 3 Xrotation Yrotation Zrotation
				End Site
				{
					OFFSET 0.000000 -2.449906 4.627600 
				}
			}
		}
	}
}
MOTION
Frames: 20
Frame Time: 0.016667
-2.902832 58.935459 0.563287 -2.012046 -167.312256 -6.481807 -24.359875 5.323070 5.153725 19.209398 0.368877 3.361005 -15.840824 -0.629451 6.184445 1.504468 6.716455 3.555979 1.993405 -2.003458 -0.008156 49.667290 -33.535141 -107.060760 -48.212376 -0.442109 -1.241983 -0.051951 0.007158 42.861328 -2.003062 1.991579 -0.506922 -11.867204 53.479019 -65.118355 65.644859 0.175155 -0.671114 0.085214 -0.117157 1.308592 -44.911156 1.631023 10.179976 99.854828 3.760108 4.038440 -6.977805 4.491643 -5.623623 1.025396 -8.224938 5.293816 89.743881 -5.947322 -4.630137 -15.224451 6.077751 2.966378 
-2.630967 58.857430 1.072749 -2.841313 -167.456360 1.738599 -24.863295 -0.053163 7.837137 19.313074 -6.362289 3.410421 -16.528471 -5.993660 8.131729 2.158749 1.288148 3.408135 1.993405 -2.003458 -0.008156 60.236244 -34.096172 -107.590965 -50.302887 -0.465274 -1.263735 -0.052245 0.007421 40.546875 -2.003062 1.991579 -0.506922 -13.122524 53.979950 -79.770233 55.927135 0.115098 -0.605948 0.079641 -0.107105 4.404291 -45.039894 3.591571 10.593125 99.668869 3.797640 4.064961 -13.524957 -10.357068 -3.453187 0.439612 -7.641606 4.106441 89.920357 -5.917946 -4.606184 -20.919893 1.192157 3.777045 
-2.303684 58.584339 1.675665 -3.467136 -167.054184 10.133035 -24.903238 -0.469456 7.923014 19.071320 -6.713589 3.388556 -16.259563 -4.791589 6.531504 2.101125 2.176272 2.834043 1.993405 -2.003458 -0.008156 59.619732 -35.386639 -106.946388 -51.191830 -0.473076 -1.273778 -0.056343 0.015397 37.968750 -2.003062 1.991579 -0.506922 -24.430798 52.268345 -88.416451 48.895489 0.065338 -0.565077 0.091647 -0.117033 2.939448 -44.878345 4.627759 10.954520 99.021645 3.895390 4.097093 -17.935299 -13.350457 -4.433804 0.253955 -7.575602 3.083758 90.115250 -5.937405 -4.601183 -24.696180 -0.584264 3.559735 
-1.989555 58.366394 2.296632 -4.332862 -166.833298 18.496990 -24.829096 -1.099033 7.520082 19.032116 -6.955592 3.096065 -15.646108 -4.542765 5.772592 2.336052 2.410107 2.500957 1.993405 -2.003458 -0.008156 58.448341 -36.025433 -105.303444 -52.432682 -0.494213 -1.283122 -0.051258 0.023788 35.712894 -2.003062 1.991579 -0.506922 -31.593849 51.348454 -94.084625 44.403130 0.026392 -0.545275 0.085394 -0.117161 1.220701 -45.106266 5.957027 11.331907 98.491447 3.983160 4.115838 -19.572306 -14.930420 -5.045948 0.097922 -7.655078 2.417137 90.331299 -5.937468 -4.616413 -27.241388 -1.368212 3.192564 
-1.681954 58.073174 2.995399 -5.274158 -166.909195 26.724960 -24.834724 -1.613072 7.269806 19.085787 -7.286212 2.886977 -14.830436 -4.428122 4.901136 2.580833 2.624292 2.120523 1.993405 -2.003458 -0.008156 57.361248 -37.008965 -104.026016 -53.868717 -0.508604 -1.309373 -0.056623 0.032612 33.398445 -2.003062 1.991579 -0.506922 -33.587185 50.589180 -95.435860 42.625732 0.015694 -0.545338 0.087411 -0.117187 0.234375 -45.655346 7.428200 11.585427 97.763382 4.110222 4.108792 -18.984470 -15.766655 -5.145722 -0.204658 -7.393950 2.381561 90.664604 -5.937598 -4.625620 -27.540222 -1.372195 2.866839 
-1.384181 57.718559 3.745735 -6.095898 -167.345016 34.748039 -24.724493 -2.084740 6.887106 19.295948 -7.572564 2.621862 -14.366847 -4.267078 4.216706 2.698626 2.838650 1.833283 1.993405 -2.003458 -0.008156 56.111012 -37.967270 -102.835350 -55.646873 -0.530094 -1.329210 -0.058220 0.033611 30.634779 -2.003062 1.991579 -0.506922 -33.833790 50.022411 -95.384155 41.756626 0.009394 -0.532030 0.085694 -0.117167 1.074217 -46.322819 9.157784 11.673824 97.028809 4.197973 4.152737 -18.422905 -16.484425 -5.181183 -0.633952 -6.823230 2.882695 91.235764 -5.879005 -4.649681 -26.431856 -0.653946 2.574630 
-1.091532 57.357311 4.507961 -6.711475 -167.932358 42.512302 -24.527126 -2.514627 6.420088 19.504200 -7.802864 2.323977 -14.370545 -4.456281 3.649788 2.640051 2.877807 1.539213 1.993405 -2.003458 -0.008156 54.895370 -39.142452 -102.113907 -57.747536 -0.556639 -1.357757 -0.055793 0.043422 27.216812 -2.003062 1.991579 -0.506922 -34.635532 49.313885 -95.261185 40.506622 -0.000195 -0.526437 0.082380 -0.117058 2.695308 -47.016308 11.081497 11.770438 96.245102 4.276353 4.183293 -17.890957 -16.875463 -5.171762 -1.170552 -6.293150 3.601232 92.051994 -5.761903 -4.629870 -25.274817 0.682958 2.231134 
-0.814822 56.996441 5.279564 -7.330168 -168.325943 49.888260 -24.313442 -3.026397 6.053572 19.555403 -8.040254 2.076902 -14.098382 -5.030166 3.096873 2.698359 2.721593 1.202758 1.993405 -2.003458 -0.008156 53.988358 -40.659786 -101.891258 -59.945892 -0.579330 -1.391011 -0.074186 0.053688 23.613298 -2.003062 1.991579 -0.506922 -35.316116 48.620701 -94.543175 39.490978 -0.004611 -0.527683 0.090868 -0.107207 3.623041 -47.384941 12.935565 12.147804 95.381546 4.364601 4.183612 -17.426712 -16.497746 -5.069401 -1.745698 -6.418885 4.244315 92.994629 -5.673905 -4.619848 -24.420290 2.745740 1.918318 
-0.592669 56.558800 6.095822 -8.170909 -168.571106 56.765064 -24.131714 -3.565798 5.795149 19.539877 -8.124053 1.874747 -13.201562 -5.715076 2.509216 2.981370 2.506373 0.863219 1.993405 -2.003458 -0.008156 53.017559 -42.260593 -101.564651 -62.115147 -0.604969 -1.414475 -0.073882 0.064092 20.351582 -2.003062 1.991579 -0.506922 -35.587677 48.283104 -93.509720 39.246788 -0.016103 -0.529082 0.091014 -0.107216 3.544917 -47.483067 14.595549 12.802276 94.242500 4.530657 4.214104 -16.991684 -15.639448 -4.989934 -2.517879 -7.427584 4.920574 93.935547 -5.605425 -4.589021 -24.010155 4.975364 1.671006 
-0.441484 56.003994 6.963058 -9.243891 -168.988922 63.087997 -24.038990 -4.068256 5.630442 19.563408 -8.002962 1.707633 -12.200594 -6.167216 1.906468 3.254738 2.369223 0.554903 1.993405 -2.003458 -0.008156 51.601681 -43.721672 -100.666710 -64.548164 -0.627102 -1.453566 -0.074519 0.074620 17.226585 -2.003062 1.991579 -0.506922 -35.561604 48.542091 -93.428383 39.949944 -0.008838 -0.527629 0.101253 -0.117025 3.017573 -47.421406 16.142626 13.548730 92.679794 4.755895 4.228268 -16.835438 -14.635052 -4.925426 -3.736456 -8.830793 5.876287 94.749268 -5.586001 -4.605676 -23.918463 6.383213 1.641683 
-0.345655 55.364658 7.834157 -10.001536 -169.860184 68.867882 -23.961481 -4.392309 5.435219 19.692165 -7.812299 1.569624 -11.348547 -6.291587 1.318485 3.479563 2.378424 0.281577 1.993405 -2.003458 -0.008156 49.847801 -45.306496 -99.774986 -67.333183 -0.655673 -1.493467 -0.078235 0.075672 14.394544 -2.003062 1.991579 -0.506922 -35.753227 49.194176 -95.757851 41.473373 0.005557 -0.539294 0.091348 -0.117018 3.085932 -47.450382 17.870850 13.881731 90.939598 5.077947 4.314459 -16.989941 -13.904998 -4.911762 -5.387996 -9.888717 7.118868 95.376678 -5.595765 -4.639187 -24.355377 6.717432 1.786028 
-0.288540 54.676304 8.646763 170.024673 -8.918096 -105.792404 -23.815258 -4.415146 5.021698 19.852776 -7.666424 1.363317 -10.421547 -6.128477 0.812202 3.792775 2.533509 0.099808 1.993405 -2.003458 -0.008156 47.598160 -46.948170 -99.099731 -70.479767 -0.681087 -1.540665 -0.087245 0.095549 11.923861 -2.003062 1.991579 -0.506922 -36.194569 49.782856 -100.148964 43.953926 0.030667 -0.545052 0.097049 -0.116728 5.078134 -47.783512 19.922327 13.235510 89.049034 5.462301 4.399913 -17.243370 -13.141685 -5.001977 -7.259151 -10.305723 8.196464 95.739120 -5.634809 -4.679408 -24.982225 6.770113 2.050323 
-0.255899 53.941936 9.395683 170.370605 -7.732655 -100.684494 -23.671404 -4.214070 4.324822 19.922598 -7.267418 1.104210 -9.308838 -5.975533 0.537926 4.243095 2.726892 0.036455 1.993405 -2.003458 -0.008156 44.420479 -48.465340 -98.141991 -73.929352 -0.703921 -1.595984 -0.073027 0.086625 9.736347 -2.003062 1.991579 -0.506922 -35.649582 50.028160 -103.623169 48.221615 0.058190 -0.563493 0.091334 -0.106210 8.613286 -48.146244 21.654337 11.875394 87.045212 5.937950 4.485966 -17.863531 -11.982279 -5.189400 -9.333998 -10.857825 8.967793 95.923431 -5.722604 -4.710835 -25.229683 7.284296 2.271589 
-0.236081 53.173309 10.101715 170.165619 -6.746044 -95.825684 -23.561462 -4.145910 3.543600 19.921780 -6.577547 0.777017 -8.286755 -5.924273 0.597018 4.634581 2.832520 0.102774 1.993405 -2.003458 -0.008156 40.303928 -49.613075 -96.363632 -77.633141 -0.724313 -1.660652 -0.093237 0.106481 7.587914 -2.003062 1.991579 -0.506922 -33.298454 49.711693 -103.515839 53.973900 0.102657 -0.589467 0.086106 -0.105286 11.445329 -48.099373 22.212482 10.481828 85.026016 6.543653 4.648110 -19.145910 -9.934246 -5.612674 -11.522923 -12.470353 9.662631 96.029610 -5.830090 -4.762080 -25.177485 8.176831 2.458075 
-0.212882 52.409058 10.759471 169.453262 -6.001161 -91.385872 -23.448906 -4.301902 2.664209 19.891478 -5.806248 0.374266 -7.828877 -6.172847 1.139300 4.751556 2.744457 0.374724 1.993405 -2.003458 -0.008156 36.025414 -50.339180 -94.079422 -81.034142 -0.744872 -1.711299 -0.097038 0.106919 5.546902 -2.003062 1.991579 -0.506922 -30.850414 48.697678 -100.958450 59.120743 0.134737 -0.624896 0.076812 -0.095406 12.324235 -47.396236 21.607325 8.937942 82.832161 7.237312 4.833214 -20.747690 -6.756872 -6.170519 -13.869726 -14.867825 10.789157 96.224564 -5.947375 -4.836530 -24.776077 9.185670 2.707967 
-0.164390 51.677315 11.349203 168.972153 -5.493013 -87.857277 -23.338614 -4.520909 1.888583 19.778790 -5.396302 0.005834 -7.571834 -6.718791 1.798796 4.740715 2.462261 0.673114 1.993405 -2.003458 -0.008156 31.871672 -50.532799 -91.402435 -84.103012 -0.762081 -1.766883 -0.081486 0.107231 3.417981 -2.003062 1.991579 -0.506922 -29.407673 47.318428 -98.085564 62.509781 0.158909 -0.643908 0.076991 -0.095445 12.216813 -45.972111 20.749231 6.928343 81.088509 8.145802 5.186309 -22.744469 -1.873829 -6.771087 -16.462809 -17.010397 12.496862 96.468147 -6.054766 -4.893054 -24.276442 10.229230 2.948349 
-0.083229 50.965706 11.891944 169.165680 -5.093604 -85.403885 -23.212868 -4.570088 1.302045 19.726990 -5.315219 -0.252991 -6.970686 -7.290054 2.215982 4.856945 2.150461 0.895817 1.993405 -2.003458 -0.008156 28.157299 -50.380966 -88.848953 -86.888412 -0.773923 -1.815961 -0.094641 0.117149 1.474626 -2.003062 1.991579 -0.506922 -28.293224 46.272205 -95.804749 65.058929 0.177890 -0.660433 0.078809 -0.085846 12.382814 -44.108482 20.232841 4.279871 79.644768 9.239801 5.666613 -24.541468 4.789372 -7.349571 -19.625252 -18.152386 14.715274 96.663651 -6.103604 -4.923575 -23.075443 11.210389 3.110187 
0.025200 50.249969 12.419630 169.702759 -4.602719 -83.842804 -23.120811 -4.456330 0.835198 19.830254 -5.173847 -0.446916 -5.900126 -7.489865 2.343815 5.169092 1.974366 0.960052 1.993405 -2.003458 -0.008156 24.828440 -50.062153 -86.605286 -89.321663 -0.774385 -1.855965 -0.087771 0.117187 0.058614 -2.003062 1.991579 -0.506922 -26.871893 46.005535 -94.172966 67.715515 0.194346 -0.680266 0.077713 -0.085598 13.115248 -41.686333 19.373581 1.152437 78.399872 10.714283 6.395881 -26.203587 12.600245 -8.020953 -23.589529 -18.484745 17.232899 96.771622 -6.113269 -4.937615 -21.424610 11.915040 3.165361 
0.164407 49.540241 12.940389 169.789459 -3.988760 -82.778641 -23.140989 -4.473642 0.512335 19.818966 -4.815559 -0.600566 -4.793763 -7.201550 2.388361 5.530602 1.963481 1.039915 1.993405 -2.003458 -0.008156 22.282856 -49.930161 -84.818558 -91.217453 -0.781128 -1.872208 -0.089470 0.126943 -0.712889 -2.003062 1.991579 -0.506922 -24.991817 46.236790 -92.724258 70.538132 0.207207 -0.703619 0.076373 -0.085275 14.013685 -38.200058 16.619738 -2.373470 77.105812 12.941155 7.667160 -28.043736 20.913475 -9.153286 -28.261814 -18.903915 20.037130 96.820526 -6.103510 -4.928519 -19.917353 12.380415 3.254243 
0.340715 48.875893 13.428176 169.267380 -3.454276 -82.041023 -23.217234 -4.695737 0.321378 19.568747 -4.288940 -0.702610 -4.079136 -6.516796 2.406312 5.755972 2.137615 1.114072 1.993405 -2.003458 -0.008156 20.222168 -49.907887 -83.224182 -92.722610 -0.790227 -1.894818 -0.090119 0.126934 -1.005857 -2.003062 1.991579 -0.506922 -22.960588 46.665897 -91.292969 73.292374 0.216189 -0.720239 0.075256 -0.084988 14.765636 -32.970356 11.257781 -5.628238 75.484413 17.433306 10.558859 -29.538382 29.408524 -11.687027 -33.442032 -19.598854 22.972490 96.860405 -6.093724 -4.938306 -19.410654 12.361501 3.600714 
